<svg width="25" height="24" viewBox="0 0 25 24" fill="none" xmlns="http://www.w3.org/2000/svg">
<g id="material-symbols:prompt-suggestion">
<path id="Vector" d="M15.5 19L14.1 17.575L17.675 14H8C6.75 14 5.68767 13.5627 4.813 12.688C3.93833 11.8133 3.50067 10.7507 3.5 9.5C3.5 8.25 3.93767 7.18767 4.813 6.313C5.68833 5.43833 6.75067 5.00067 8 5H8.5V7H8C7.3 7 6.70833 7.24167 6.225 7.725C5.74167 8.20833 5.5 8.8 5.5 9.5C5.5 10.2 5.74167 10.7917 6.225 11.275C6.70833 11.7583 7.3 12 8 12H17.675L14.1 8.4L15.5 7L21.5 13L15.5 19Z" fill="black"/>
</g>
</svg>
