<svg width="33" height="32" viewBox="0 0 33 32" fill="none" xmlns="http://www.w3.org/2000/svg">
<g id="&#240;&#159;&#166;&#134; emoji &#34;white frowning face&#34;">
<path id="Vector" d="M16.5 32C25.3366 32 32.5 24.8366 32.5 16C32.5 7.16344 25.3366 0 16.5 0C7.66344 0 0.5 7.16344 0.5 16C0.5 24.8366 7.66344 32 16.5 32Z" fill="#FFDD67"/>
<g id="Group">
<path id="Vector_2" d="M10.3664 14.7215C11.8391 14.7215 13.033 13.5276 13.033 12.0548C13.033 10.5821 11.8391 9.38817 10.3664 9.38817C8.89361 9.38817 7.69971 10.5821 7.69971 12.0548C7.69971 13.5276 8.89361 14.7215 10.3664 14.7215Z" fill="#664E27"/>
<path id="Vector_3" d="M22.633 14.7215C24.1057 14.7215 25.2996 13.5276 25.2996 12.0548C25.2996 10.5821 24.1057 9.38817 22.633 9.38817C21.1602 9.38817 19.9663 10.5821 19.9663 12.0548C19.9663 13.5276 21.1602 14.7215 22.633 14.7215Z" fill="#664E27"/>
<path id="Vector_4" d="M9.78001 23.3601C14.1 20.3201 18.9 20.3735 23.22 23.3601C23.7533 23.7335 24.18 23.0935 23.86 22.5068C22.5267 20.3735 19.9133 18.4001 16.5 18.4001C13.0867 18.4001 10.4733 20.3201 9.14001 22.5068C8.82001 23.0935 9.24668 23.7335 9.78001 23.3601Z" fill="#664E27"/>
</g>
</g>
</svg>
