<svg width="33" height="32" viewBox="0 0 33 32" fill="none" xmlns="http://www.w3.org/2000/svg">
<g id="&#240;&#159;&#166;&#134; emoji &#34;smiling face with heart-shaped eyes&#34;">
<path id="Vector" d="M32.4996 16.0164C32.4996 24.8607 25.3602 32 16.516 32C7.6717 32 0.532349 24.8607 0.532349 16.0164C0.532349 7.17213 7.6717 0.0327797 16.516 0.0327797C25.3602 0.0327797 32.4996 7.17213 32.4996 16.0164Z" fill="#FFDD67"/>
<path id="Vector_2" d="M32.3946 6.00367C32.1282 4.56515 31.329 3.39302 29.9971 3.02007C28.5585 2.64712 27.2799 3.1799 26.0544 4.45859C25.3618 2.54056 24.2962 1.10203 22.5913 0.356132C20.8864 -0.38977 19.1815 0.143017 18.1159 1.47498C16.9971 2.86023 16.5708 5.04466 17.743 7.86843C18.8618 10.5324 23.8167 15.8602 23.9766 16.0201C24.1897 15.9135 29.7307 12.4504 31.0626 10.7455C32.3946 9.09384 32.661 7.4422 32.3946 6.00367ZM14.9192 1.47498C13.8536 0.143017 12.1487 -0.38977 10.4438 0.356132C8.73886 1.10203 7.67329 2.54056 6.98067 4.45859C5.70198 3.23318 4.42329 2.64712 2.98476 3.07335C1.70607 3.4463 0.853614 4.61843 0.58722 6.05695C0.320826 7.4422 0.640499 9.14712 1.91919 10.7988C3.30443 12.4504 8.84542 15.9135 9.05854 16.0201C9.21837 15.8602 14.1733 10.5324 15.2921 7.86843C16.4643 5.04466 16.038 2.91351 14.9192 1.47498Z" fill="#F46767"/>
<path id="Vector_3" d="M25.5739 19.2719C25.5739 18.8457 25.3075 18.3129 24.6148 18.1531C22.7501 17.7801 20.0329 17.4605 16.5165 17.4605C13.0001 17.4605 10.2829 17.8334 8.41812 18.1531C7.67222 18.3129 7.45911 18.8457 7.45911 19.2719C7.45911 23.1613 10.4427 27.0506 16.5165 27.0506C22.5903 26.9974 25.5739 23.108 25.5739 19.2719Z" fill="#664E27"/>
<path id="Vector_4" d="M23.2832 19.375C22.1111 19.1619 19.6603 18.8422 16.5168 18.8422C13.3734 18.8422 10.9226 19.1619 9.75043 19.375C9.05781 19.4816 9.00453 19.748 9.05781 20.1742C9.11109 20.3873 9.11109 20.707 9.21764 21.0267C9.27092 21.3463 9.37748 21.5062 9.91027 21.4529C10.9226 21.3463 22.1644 21.3463 23.1767 21.4529C23.7094 21.5062 23.7627 21.3463 23.8693 21.0267C23.9226 20.707 23.9758 20.4406 24.0291 20.1742C24.0291 19.748 23.9758 19.4816 23.2832 19.375Z" fill="white"/>
</g>
</svg>
